<svg xmlns="http://www.w3.org/2000/svg" xmlns:xlink="http://www.w3.org/1999/xlink" width="321" zoomAndPan="magnify" viewBox="0 0 240.75 141.750002" height="188" preserveAspectRatio="xMidYMid meet" version="1.0"><defs><g/></defs><g fill="#ffffff" fill-opacity="1"><g transform="translate(14.11572, 79.166548)"><g><path d="M 13.601562 15.769531 L 14.023438 15.769531 C 17.816406 14.988281 20.886719 7.28125 22.03125 3.492188 C 22.449219 2.289062 22.992188 1.445312 23.894531 0.542969 C 27.507812 -3.128906 31.117188 -6.742188 34.96875 -10.113281 C 35.453125 -10.53125 35.871094 -10.894531 36.292969 -11.316406 L 36.835938 -11.855469 C 37.136719 -12.277344 37.136719 -12.640625 36.835938 -12.941406 C 36.65625 -13.0625 36.476562 -13.121094 36.292969 -13.121094 C 36.113281 -13.121094 35.933594 -13.0625 35.753906 -12.941406 C 35.632812 -12.878906 35.511719 -12.761719 35.453125 -12.699219 C 35.332031 -12.578125 35.210938 -12.460938 35.152344 -12.398438 C 31.539062 -9.210938 28.109375 -5.957031 24.738281 -2.527344 C 24.558594 -2.347656 24.375 -2.105469 24.074219 -2.105469 L 23.894531 -2.105469 C 23.714844 -2.40625 23.773438 -2.769531 23.957031 -3.070312 C 25.460938 -9.269531 26.605469 -15.289062 27.808594 -21.546875 C 27.867188 -21.96875 27.929688 -22.210938 27.929688 -22.511719 C 27.929688 -22.871094 27.808594 -23.113281 27.628906 -23.171875 C 27.386719 -23.234375 27.207031 -23.292969 27.144531 -23.292969 C 27.023438 -23.292969 26.84375 -23.234375 26.664062 -23.113281 C 26.242188 -22.691406 25.882812 -22.269531 25.519531 -21.789062 C 23.957031 -19.984375 22.390625 -18.175781 20.886719 -16.3125 C 19.320312 -14.445312 17.757812 -12.640625 16.191406 -10.835938 C 15.289062 -9.691406 12.21875 -6.5625 10.292969 -4.753906 C 8.246094 -2.828125 5.175781 -0.480469 3.492188 -0.480469 C 2.527344 -0.480469 1.925781 -1.265625 1.683594 -2.828125 C 1.566406 -3.25 1.566406 -3.792969 1.625 -4.394531 C 1.683594 -5.054688 1.746094 -5.65625 1.925781 -6.320312 C 3.851562 -14.445312 8.605469 -24.558594 15.226562 -29.734375 C 16.613281 -30.878906 18.539062 -31.960938 20.402344 -31.960938 C 21.609375 -31.960938 22.269531 -31.179688 22.390625 -29.554688 C 22.390625 -27.6875 21.96875 -26.121094 21.308594 -24.375 C 20.402344 -22.269531 19.5 -20.34375 18.359375 -18.417969 C 18.296875 -18.238281 18.175781 -18.058594 18.058594 -17.875 C 17.9375 -17.695312 17.816406 -17.574219 17.757812 -17.394531 C 17.695312 -17.152344 17.757812 -16.972656 17.9375 -16.851562 C 17.996094 -16.792969 18.175781 -16.792969 18.359375 -16.792969 L 18.476562 -16.792969 C 20.222656 -17.574219 23.292969 -25.097656 23.773438 -27.628906 C 23.894531 -28.167969 23.957031 -28.769531 23.957031 -29.371094 C 23.957031 -29.972656 23.835938 -30.578125 23.65625 -31.117188 C 23.171875 -32.742188 22.089844 -33.527344 20.464844 -33.527344 C 16.371094 -33.527344 12.339844 -29.671875 9.8125 -26.484375 C 5.054688 -20.644531 2.167969 -13.964844 0.421875 -6.679688 C 0.179688 -5.539062 -0.0585938 -4.515625 0 -3.371094 C 0.179688 -1.203125 1.144531 1.144531 3.371094 1.144531 C 3.429688 1.144531 3.550781 1.144531 3.613281 1.144531 C 3.671875 1.082031 3.792969 1.082031 3.851562 1.082031 C 7.886719 0.601562 15.527344 -7.464844 18.117188 -10.59375 L 24.257812 -17.816406 C 24.4375 -17.996094 24.558594 -18.238281 24.738281 -18.476562 C 24.859375 -18.660156 25.097656 -18.777344 25.460938 -18.777344 C 25.640625 -18.359375 25.519531 -17.875 25.460938 -17.453125 C 24.316406 -11.675781 23.113281 -6.078125 21.609375 -0.359375 C 21.367188 0.542969 20.886719 1.382812 20.222656 2.167969 C 18.058594 4.453125 12.339844 10.773438 12.039062 13.84375 C 11.917969 15.109375 12.460938 15.769531 13.601562 15.769531 Z M 14.203125 14.023438 C 14.085938 14.085938 13.964844 14.085938 13.84375 13.964844 C 13.785156 13.902344 13.722656 13.785156 13.722656 13.664062 C 13.785156 12.761719 14.265625 12.039062 14.746094 11.375 C 15.226562 10.714844 15.710938 10.050781 16.25 9.390625 C 16.792969 8.726562 17.273438 8.003906 17.816406 7.34375 C 17.996094 7.042969 18.238281 6.742188 18.476562 6.5625 C 18.71875 6.320312 18.898438 6.019531 19.019531 5.71875 C 19.320312 6.019531 19.320312 6.320312 19.140625 6.742188 C 18.359375 8.847656 17.394531 10.835938 16.011719 12.578125 C 15.46875 13.242188 14.925781 13.722656 14.203125 14.023438 Z M 14.203125 14.023438 "/></g></g></g><g fill="#ffffff" fill-opacity="1"><g transform="translate(48.123088, 79.166548)"><g><path d="M 2.828125 -2.527344 C 6.980469 -2.527344 13.300781 -8.667969 16.191406 -11.738281 C 16.433594 -11.976562 16.613281 -12.160156 16.671875 -12.339844 C 16.851562 -12.640625 16.792969 -12.941406 16.492188 -13.242188 C 16.371094 -13.363281 16.25 -13.421875 16.070312 -13.421875 C 15.949219 -13.421875 15.769531 -13.363281 15.589844 -13.242188 C 15.410156 -13.0625 15.226562 -12.878906 15.046875 -12.699219 C 14.867188 -12.519531 14.625 -12.339844 14.445312 -12.160156 C 13.722656 -11.496094 13 -10.835938 12.339844 -10.171875 C 11.617188 -9.511719 10.894531 -8.789062 10.171875 -8.125 C 8.425781 -6.5 5.65625 -4.574219 3.25 -4.09375 C 2.105469 -4.09375 1.445312 -4.09375 1.203125 -5.476562 C 0.902344 -6.257812 0.84375 -6.921875 1.023438 -7.582031 C 1.082031 -7.886719 1.265625 -8.066406 1.503906 -8.125 C 4.394531 -8.425781 8.1875 -11.976562 8.667969 -14.925781 C 8.847656 -16.3125 8.066406 -17.152344 6.863281 -17.152344 C 6.800781 -17.152344 6.679688 -17.152344 6.621094 -17.152344 C 6.5625 -17.09375 6.441406 -17.09375 6.378906 -17.09375 C 3.191406 -16.613281 0.84375 -12.398438 -0.179688 -9.570312 C -0.421875 -8.667969 -0.660156 -7.824219 -0.601562 -6.800781 C -0.660156 -6.140625 -0.480469 -5.417969 -0.242188 -4.753906 C 0.179688 -3.25 1.203125 -2.527344 2.828125 -2.527344 Z M 2.289062 -9.929688 C 2.226562 -9.871094 2.105469 -9.929688 1.925781 -9.992188 C 1.867188 -9.992188 1.804688 -10.113281 1.804688 -10.292969 C 2.46875 -12.160156 4.515625 -15.167969 6.5 -15.46875 C 6.800781 -15.527344 6.980469 -15.410156 7.042969 -14.988281 C 7.042969 -13.0625 3.851562 -10.773438 2.289062 -9.929688 Z M 2.289062 -9.929688 "/></g></g></g><g fill="#ffffff" fill-opacity="1"><g transform="translate(61.84644, 79.166548)"><g><path d="M 2.828125 -2.527344 C 6.980469 -2.527344 13.300781 -8.667969 16.191406 -11.738281 C 16.433594 -11.976562 16.613281 -12.160156 16.671875 -12.339844 C 16.851562 -12.640625 16.792969 -12.941406 16.492188 -13.242188 C 16.371094 -13.363281 16.25 -13.421875 16.070312 -13.421875 C 15.949219 -13.421875 15.769531 -13.363281 15.589844 -13.242188 C 15.410156 -13.0625 15.226562 -12.878906 15.046875 -12.699219 C 14.867188 -12.519531 14.625 -12.339844 14.445312 -12.160156 C 13.722656 -11.496094 13 -10.835938 12.339844 -10.171875 C 11.617188 -9.511719 10.894531 -8.789062 10.171875 -8.125 C 8.425781 -6.5 5.65625 -4.574219 3.25 -4.09375 C 2.105469 -4.09375 1.445312 -4.09375 1.203125 -5.476562 C 0.902344 -6.257812 0.84375 -6.921875 1.023438 -7.582031 C 1.082031 -7.886719 1.265625 -8.066406 1.503906 -8.125 C 4.394531 -8.425781 8.1875 -11.976562 8.667969 -14.925781 C 8.847656 -16.3125 8.066406 -17.152344 6.863281 -17.152344 C 6.800781 -17.152344 6.679688 -17.152344 6.621094 -17.152344 C 6.5625 -17.09375 6.441406 -17.09375 6.378906 -17.09375 C 3.191406 -16.613281 0.84375 -12.398438 -0.179688 -9.570312 C -0.421875 -8.667969 -0.660156 -7.824219 -0.601562 -6.800781 C -0.660156 -6.140625 -0.480469 -5.417969 -0.242188 -4.753906 C 0.179688 -3.25 1.203125 -2.527344 2.828125 -2.527344 Z M 2.289062 -9.929688 C 2.226562 -9.871094 2.105469 -9.929688 1.925781 -9.992188 C 1.867188 -9.992188 1.804688 -10.113281 1.804688 -10.292969 C 2.46875 -12.160156 4.515625 -15.167969 6.5 -15.46875 C 6.800781 -15.527344 6.980469 -15.410156 7.042969 -14.988281 C 7.042969 -13.0625 3.851562 -10.773438 2.289062 -9.929688 Z M 2.289062 -9.929688 "/></g></g></g><g fill="#ffffff" fill-opacity="1"><g transform="translate(75.569792, 79.166548)"><g><path d="M 1.082031 4.273438 C 2.046875 4.273438 3.191406 3.429688 3.730469 2.707031 C 5.65625 0.480469 7.824219 -2.46875 9.8125 -5.175781 C 11.496094 -7.464844 13.722656 -10.53125 14.925781 -11.976562 C 15.046875 -12.097656 15.109375 -12.21875 15.109375 -12.339844 C 15.289062 -12.699219 15.226562 -13 14.925781 -13.242188 C 14.746094 -13.300781 14.625 -13.363281 14.503906 -13.363281 C 14.445312 -13.363281 14.445312 -13.363281 14.386719 -13.363281 C 14.324219 -13.300781 14.324219 -13.300781 14.265625 -13.300781 C 13.964844 -13.179688 13.722656 -13 13.542969 -12.820312 C 13.363281 -12.578125 13.121094 -12.339844 12.941406 -12.097656 C 11.195312 -10.351562 5.898438 -2.40625 3.371094 0.78125 C 3.070312 1.144531 2.769531 1.503906 2.46875 1.867188 C 2.167969 2.167969 1.804688 2.40625 1.265625 2.46875 C 0.359375 1.746094 0.660156 0.660156 0.722656 -0.242188 C 0.902344 -2.347656 1.144531 -4.273438 1.625 -6.257812 C 2.40625 -9.75 5.539062 -19.320312 6.921875 -22.390625 C 7.222656 -23.171875 7.824219 -23.535156 8.667969 -23.59375 L 21.609375 -24.738281 C 21.910156 -24.796875 22.148438 -24.796875 22.390625 -24.859375 C 22.632812 -24.859375 22.871094 -24.917969 23.171875 -24.980469 C 23.414062 -25.039062 23.535156 -25.28125 23.535156 -25.582031 C 23.472656 -26 23.292969 -26.183594 23.050781 -26.183594 L 20.886719 -26.183594 C 19.199219 -26 17.394531 -25.820312 15.410156 -25.699219 C 13.421875 -25.519531 11.617188 -25.339844 9.929688 -25.160156 C 9.871094 -25.160156 9.75 -25.160156 9.628906 -25.160156 C 9.511719 -25.097656 9.390625 -25.097656 9.269531 -25.097656 C 9.027344 -25.097656 8.789062 -25.160156 8.488281 -25.21875 C 8.488281 -25.519531 8.546875 -25.820312 8.667969 -26.0625 C 8.726562 -26.242188 8.847656 -26.484375 8.90625 -26.664062 C 9.691406 -28.289062 10.472656 -29.855469 11.136719 -31.480469 C 11.4375 -32.019531 11.496094 -32.503906 11.4375 -32.804688 C 11.316406 -33.105469 11.136719 -33.226562 10.894531 -33.226562 C 10.472656 -33.226562 10.050781 -32.863281 9.628906 -32.140625 C 9.328125 -31.660156 9.027344 -31.179688 8.789062 -30.695312 C 8.488281 -30.214844 8.246094 -29.734375 7.945312 -29.253906 L 6.320312 -25.640625 C 6.019531 -24.980469 5.539062 -24.679688 4.816406 -24.617188 C 3.792969 -24.496094 2.707031 -24.375 1.625 -24.257812 C 0.542969 -24.136719 -0.542969 -24.015625 -1.625 -23.835938 C -1.925781 -23.773438 -2.226562 -23.714844 -2.527344 -23.65625 C -2.769531 -23.59375 -3.007812 -23.472656 -3.308594 -23.414062 C -3.613281 -23.355469 -3.671875 -23.113281 -3.613281 -22.75 C -3.550781 -22.570312 -3.429688 -22.449219 -3.191406 -22.390625 C -3.007812 -22.332031 -2.828125 -22.332031 -2.527344 -22.332031 C -2.046875 -22.332031 -1.503906 -22.449219 -1.023438 -22.511719 C -0.242188 -22.570312 0.601562 -22.691406 1.445312 -22.8125 C 2.226562 -22.933594 3.070312 -23.050781 3.851562 -23.113281 L 4.332031 -23.113281 C 5.054688 -23.113281 5.117188 -22.8125 4.816406 -21.910156 C 4.394531 -20.886719 4.09375 -19.921875 3.671875 -18.777344 C 1.683594 -13.363281 -0.84375 -5.117188 -0.84375 0.722656 C -0.84375 2.105469 -0.480469 4.273438 1.082031 4.273438 Z M 1.082031 4.273438 "/></g></g></g><g fill="#ffffff" fill-opacity="1"><g transform="translate(87.667998, 79.166548)"><g><path d="M 1.144531 1.925781 C 1.324219 1.925781 1.566406 1.804688 1.867188 1.625 C 2.289062 1.324219 2.589844 0.902344 2.828125 0.359375 C 3.308594 -0.480469 3.792969 -1.324219 4.214844 -2.226562 C 5.898438 -5.71875 8.1875 -10.472656 10.835938 -13.421875 C 11.015625 -13.601562 11.253906 -13.84375 11.554688 -14.023438 C 11.617188 -14.085938 11.675781 -14.085938 11.738281 -14.085938 C 11.917969 -14.085938 11.976562 -14.023438 11.976562 -13.84375 C 12.039062 -13.542969 12.039062 -13.300781 12.039062 -13.0625 C 12.039062 -12.820312 12.039062 -12.578125 12.039062 -12.277344 C 11.976562 -11.015625 11.976562 -9.75 12.21875 -8.546875 C 12.519531 -7.101562 13.300781 -6.378906 14.503906 -6.378906 C 16.070312 -6.378906 22.570312 -10.773438 23.050781 -12.519531 C 23.113281 -12.820312 22.992188 -13.0625 22.75 -13.242188 C 22.691406 -13.300781 22.632812 -13.300781 22.570312 -13.363281 C 22.511719 -13.421875 22.390625 -13.421875 22.332031 -13.421875 C 22.210938 -13.421875 22.089844 -13.363281 22.03125 -13.300781 C 21.789062 -13.121094 21.546875 -12.878906 21.367188 -12.640625 C 20.222656 -11.496094 16.734375 -8.847656 15.289062 -8.1875 C 15.046875 -8.066406 14.808594 -8.003906 14.566406 -8.003906 C 14.144531 -8.003906 13.84375 -8.367188 13.722656 -9.027344 C 13.664062 -9.269531 13.601562 -9.511719 13.601562 -9.8125 C 13.601562 -10.050781 13.601562 -10.292969 13.601562 -10.59375 C 13.542969 -11.074219 13.542969 -11.554688 13.601562 -12.039062 C 13.601562 -12.519531 13.601562 -13 13.601562 -13.542969 C 13.601562 -13.785156 13.601562 -14.023438 13.664062 -14.324219 C 13.664062 -14.566406 13.601562 -14.808594 13.542969 -15.109375 C 13.421875 -15.890625 13 -16.3125 12.277344 -16.3125 C 11.917969 -16.3125 11.617188 -16.191406 11.375 -16.011719 C 8.246094 -13.84375 4.515625 -6.5625 2.890625 -3.128906 C 2.707031 -2.828125 2.589844 -2.527344 2.46875 -2.226562 C 2.347656 -1.925781 2.105469 -1.625 1.683594 -1.324219 C 1.625 -1.746094 1.566406 -1.867188 1.566406 -2.105469 C 1.566406 -6.320312 3.429688 -16.011719 5.777344 -19.742188 C 8.90625 -24.558594 11.316406 -29.492188 13.664062 -34.730469 C 13.785156 -35.03125 13.902344 -35.332031 14.023438 -35.632812 C 14.144531 -35.933594 14.265625 -36.234375 14.324219 -36.535156 C 14.386719 -36.714844 14.445312 -36.835938 14.445312 -37.015625 C 14.445312 -37.195312 14.445312 -37.316406 14.445312 -37.5 C 14.445312 -37.800781 14.265625 -37.980469 13.84375 -37.980469 C 13.785156 -37.980469 13.722656 -37.980469 13.664062 -37.917969 C 13.363281 -37.738281 13.0625 -37.558594 12.878906 -37.378906 C 8.789062 -32.019531 5.597656 -25.21875 3.492188 -18.898438 C 3.25 -18.238281 3.007812 -17.636719 2.828125 -17.035156 C 2.589844 -16.433594 2.289062 -15.828125 1.867188 -15.289062 C 1.804688 -15.109375 1.683594 -14.988281 1.625 -14.808594 C 1.503906 -14.625 1.503906 -14.386719 1.566406 -14.203125 C 1.746094 -13.785156 1.804688 -13.363281 1.746094 -13 C 1.625 -12.640625 1.503906 -12.277344 1.445312 -11.917969 C 1.324219 -11.136719 1.203125 -10.351562 1.023438 -9.628906 C 0.84375 -8.847656 0.660156 -8.066406 0.542969 -7.28125 C 0.121094 -4.9375 -0.179688 -2.769531 0 -0.421875 C 0 0.121094 0.0585938 0.660156 0.179688 1.144531 C 0.359375 1.683594 0.722656 1.925781 1.144531 1.925781 Z M 8.425781 -26.964844 C 8.726562 -27.265625 8.789062 -27.566406 8.847656 -27.988281 C 8.90625 -27.6875 8.789062 -27.386719 8.488281 -27.023438 L 8.488281 -26.964844 Z M 8.96875 -28.109375 C 9.148438 -28.289062 9.269531 -28.347656 9.328125 -28.410156 Z M 9.511719 -28.710938 L 9.691406 -29.191406 C 9.628906 -29.132812 9.628906 -29.011719 9.628906 -28.953125 C 9.628906 -28.890625 9.570312 -28.769531 9.511719 -28.710938 Z M 9.511719 -28.710938 "/></g></g></g><g fill="#ffffff" fill-opacity="1"><g transform="translate(107.711311, 79.166548)"><g><path d="M 0.300781 -5.175781 C 1.082031 -5.175781 2.105469 -6.019531 2.648438 -6.5 C 4.152344 -7.886719 5.476562 -9.328125 6.863281 -10.953125 C 7.042969 -11.136719 7.28125 -11.375 7.464844 -11.617188 C 7.644531 -11.855469 7.945312 -12.039062 8.367188 -12.21875 C 7.945312 -10.59375 7.582031 -9.027344 7.582031 -7.402344 C 7.582031 -6.257812 8.066406 -5.65625 9.089844 -5.65625 C 9.328125 -5.65625 9.511719 -5.65625 9.628906 -5.71875 C 12.160156 -6.140625 16.433594 -10.171875 18.175781 -11.917969 C 18.238281 -11.976562 18.359375 -12.097656 18.417969 -12.160156 C 18.476562 -12.21875 18.476562 -12.277344 18.539062 -12.339844 C 18.660156 -12.761719 18.597656 -13.0625 18.296875 -13.242188 C 18.175781 -13.363281 18.058594 -13.421875 17.875 -13.421875 C 17.816406 -13.421875 17.757812 -13.363281 17.574219 -13.300781 C 17.394531 -13.179688 17.214844 -13.0625 17.09375 -12.941406 C 16.914062 -12.761719 16.734375 -12.640625 16.550781 -12.460938 C 16.011719 -12.039062 15.527344 -11.617188 15.109375 -11.195312 C 14.625 -10.773438 14.144531 -10.292969 13.601562 -9.871094 C 12.878906 -9.210938 12.097656 -8.726562 11.375 -8.246094 C 10.835938 -7.945312 10.292969 -7.703125 9.75 -7.464844 C 9.691406 -7.402344 9.628906 -7.402344 9.511719 -7.402344 C 9.269531 -7.402344 9.148438 -7.582031 9.148438 -7.945312 C 9.148438 -10.53125 11.015625 -14.925781 12.160156 -17.214844 C 12.277344 -17.515625 12.398438 -17.757812 12.578125 -18.058594 C 12.699219 -18.296875 12.820312 -18.539062 12.941406 -18.839844 C 13.121094 -19.382812 13.0625 -19.800781 12.640625 -20.042969 C 12.460938 -20.101562 12.339844 -20.164062 12.277344 -20.164062 C 12.097656 -20.164062 11.855469 -20.042969 11.554688 -19.742188 C 11.375 -19.5625 11.253906 -19.320312 11.136719 -19.140625 C 10.953125 -18.898438 10.835938 -18.660156 10.652344 -18.476562 C 10.292969 -17.996094 9.929688 -17.515625 9.628906 -17.035156 C 9.269531 -16.550781 8.90625 -16.070312 8.546875 -15.648438 C 8.304688 -15.347656 8.125 -15.167969 8.003906 -15.167969 C 7.945312 -15.167969 7.765625 -15.289062 7.464844 -15.46875 C 6.863281 -15.949219 6.257812 -16.191406 5.65625 -16.191406 C 4.996094 -16.191406 4.332031 -15.949219 3.671875 -15.410156 C 3.25 -15.109375 2.949219 -14.867188 2.769531 -14.625 C 0.964844 -12.820312 -1.023438 -9.269531 -1.023438 -6.621094 C -0.964844 -5.65625 -0.480469 -5.175781 0.300781 -5.175781 Z M 0.84375 -7.34375 C 0.84375 -7.402344 0.84375 -7.402344 0.78125 -7.402344 L 0.722656 -7.464844 C 1.203125 -10.050781 2.40625 -12.21875 4.273438 -13.84375 C 4.574219 -14.144531 5.296875 -14.566406 5.71875 -14.566406 C 6.019531 -14.566406 6.257812 -14.445312 6.5625 -14.265625 C 6.863281 -14.085938 6.921875 -13.785156 6.800781 -13.421875 C 6.742188 -13.242188 6.621094 -13.179688 6.5625 -13.121094 C 4.9375 -11.136719 3.308594 -9.148438 1.382812 -7.523438 C 1.265625 -7.402344 1.082031 -7.34375 0.84375 -7.34375 Z M 0.84375 -7.34375 "/></g></g></g><g fill="#ffffff" fill-opacity="1"><g transform="translate(123.300512, 79.166548)"><g><path d="M -0.300781 -0.601562 C -0.0585938 -0.601562 0.121094 -0.660156 0.300781 -0.78125 C 0.660156 -1.082031 0.964844 -1.382812 1.144531 -1.804688 C 1.324219 -2.167969 1.503906 -2.527344 1.683594 -2.890625 C 3.550781 -6.679688 5.839844 -10.292969 8.96875 -13.121094 C 9.089844 -13.242188 9.210938 -13.300781 9.390625 -13.300781 C 9.570312 -13.300781 9.75 -13.121094 9.8125 -12.820312 C 9.871094 -12.21875 9.992188 -11.617188 10.050781 -11.074219 C 10.113281 -10.472656 10.171875 -9.871094 10.230469 -9.269531 C 10.292969 -8.546875 10.472656 -7.824219 10.894531 -7.042969 C 11.375 -6.199219 12.039062 -5.777344 12.820312 -5.777344 C 12.878906 -5.777344 13 -5.777344 13.121094 -5.839844 C 13.179688 -5.839844 13.300781 -5.839844 13.363281 -5.839844 C 14.265625 -6.019531 15.046875 -6.441406 15.769531 -7.101562 C 16.433594 -7.703125 19.984375 -10.894531 20.644531 -11.554688 C 20.886719 -11.796875 21.066406 -12.097656 21.1875 -12.398438 C 21.308594 -12.699219 21.246094 -13 20.945312 -13.242188 C 20.824219 -13.363281 20.707031 -13.421875 20.523438 -13.421875 C 20.34375 -13.421875 20.222656 -13.363281 20.101562 -13.242188 C 19.984375 -13.179688 19.863281 -13 19.683594 -12.820312 C 19.5 -12.640625 19.082031 -12.21875 18.417969 -11.675781 C 17.875 -11.195312 17.335938 -10.714844 16.851562 -10.230469 C 16.3125 -9.691406 15.828125 -9.210938 15.289062 -8.726562 C 14.625 -8.1875 14.023438 -7.703125 13.300781 -7.464844 C 13.242188 -7.464844 13.179688 -7.464844 13.179688 -7.464844 C 13.121094 -7.402344 13.0625 -7.402344 13 -7.402344 C 12.640625 -7.402344 12.398438 -7.582031 12.277344 -7.886719 C 11.976562 -8.425781 11.796875 -9.027344 11.738281 -9.75 C 11.675781 -10.230469 11.617188 -10.714844 11.617188 -11.195312 C 11.554688 -11.675781 11.496094 -12.160156 11.4375 -12.699219 C 11.253906 -13.722656 11.074219 -15.167969 9.691406 -15.167969 C 7.34375 -15.167969 2.707031 -8.246094 1.683594 -6.199219 C 1.503906 -6.621094 1.445312 -6.980469 1.625 -7.34375 C 1.746094 -7.703125 1.867188 -8.066406 1.984375 -8.425781 C 2.589844 -9.929688 3.191406 -11.496094 3.792969 -13.0625 C 4.332031 -14.566406 4.9375 -16.128906 5.539062 -17.636719 L 5.898438 -18.359375 C 6.078125 -18.777344 6.019531 -19.140625 5.597656 -19.382812 C 5.417969 -19.441406 5.296875 -19.5 5.238281 -19.5 C 4.574219 -19.5 4.03125 -17.875 3.671875 -17.335938 C 3.128906 -15.828125 2.527344 -14.324219 1.984375 -12.820312 C 1.445312 -11.316406 0.84375 -9.8125 0.300781 -8.304688 C -0.359375 -6.320312 -0.964844 -4.332031 -1.203125 -2.226562 C -1.203125 -1.867188 -1.203125 -1.625 -1.144531 -1.445312 C -1.082031 -0.902344 -0.78125 -0.601562 -0.300781 -0.601562 Z M -0.300781 -0.601562 "/></g></g></g><g fill="#ffffff" fill-opacity="1"><g transform="translate(141.538133, 79.166548)"><g><path d="M -0.421875 4.816406 C 2.226562 4.816406 4.03125 -0.121094 4.214844 -2.648438 C 4.332031 -3.429688 4.753906 -4.09375 5.417969 -4.574219 L 10.414062 -8.125 C 11.917969 -9.269531 13.421875 -10.292969 15.046875 -11.4375 C 15.46875 -11.738281 15.828125 -12.039062 16.011719 -12.339844 C 16.3125 -12.640625 16.25 -12.941406 15.890625 -13.242188 C 15.769531 -13.363281 15.648438 -13.421875 15.46875 -13.421875 C 15.289062 -13.421875 15.109375 -13.363281 14.925781 -13.242188 C 14.746094 -13.0625 14.566406 -12.941406 14.386719 -12.878906 L 5.65625 -6.742188 C 5.417969 -6.5625 5.117188 -6.378906 4.753906 -6.199219 C 4.574219 -6.5 4.453125 -6.679688 4.453125 -6.742188 C 4.273438 -8.90625 3.914062 -11.015625 3.492188 -13.179688 C 3.429688 -13.484375 3.371094 -13.84375 3.371094 -14.144531 C 3.371094 -14.445312 3.371094 -14.808594 3.429688 -15.109375 C 3.613281 -17.335938 5.539062 -19.199219 7.765625 -19.199219 C 7.945312 -19.199219 8.066406 -19.199219 8.125 -19.261719 C 8.546875 -19.441406 8.667969 -19.921875 8.367188 -20.222656 C 7.886719 -20.707031 7.582031 -20.707031 6.921875 -20.707031 C 6.257812 -20.707031 5.65625 -20.523438 5.054688 -20.164062 C 2.949219 -18.660156 1.683594 -16.734375 1.867188 -14.023438 C 1.925781 -13.242188 1.984375 -12.460938 2.167969 -11.675781 C 2.589844 -9.8125 2.828125 -8.125 2.890625 -6.257812 C 2.890625 -5.117188 2.707031 -4.394531 1.804688 -3.671875 C 0.359375 -2.707031 -2.046875 0.300781 -2.347656 1.925781 C -2.527344 2.949219 -2.347656 3.851562 -1.382812 4.515625 C -1.082031 4.695312 -0.722656 4.816406 -0.421875 4.816406 Z M -0.300781 3.128906 C -0.480469 3.128906 -0.542969 3.070312 -0.601562 2.949219 C -0.722656 2.828125 -0.78125 2.648438 -0.78125 2.46875 C -0.84375 2.347656 -0.84375 2.226562 -0.78125 2.046875 C -0.179688 0.542969 0.84375 -0.722656 2.226562 -1.746094 C 2.167969 0.179688 1.265625 2.046875 0.121094 2.949219 C 0 3.070312 -0.121094 3.128906 -0.300781 3.128906 Z M -0.300781 3.128906 "/></g></g></g><g fill="#ffffff" fill-opacity="1"><g transform="translate(154.659537, 79.166548)"><g><path d="M 1.144531 1.925781 C 1.324219 1.925781 1.566406 1.804688 1.867188 1.625 C 2.289062 1.324219 2.589844 0.902344 2.828125 0.359375 C 3.308594 -0.480469 3.792969 -1.324219 4.214844 -2.226562 C 5.898438 -5.71875 8.1875 -10.472656 10.835938 -13.421875 C 11.015625 -13.601562 11.253906 -13.84375 11.554688 -14.023438 C 11.617188 -14.085938 11.675781 -14.085938 11.738281 -14.085938 C 11.917969 -14.085938 11.976562 -14.023438 11.976562 -13.84375 C 12.039062 -13.542969 12.039062 -13.300781 12.039062 -13.0625 C 12.039062 -12.820312 12.039062 -12.578125 12.039062 -12.277344 C 11.976562 -11.015625 11.976562 -9.75 12.21875 -8.546875 C 12.519531 -7.101562 13.300781 -6.378906 14.503906 -6.378906 C 16.070312 -6.378906 22.570312 -10.773438 23.050781 -12.519531 C 23.113281 -12.820312 22.992188 -13.0625 22.75 -13.242188 C 22.691406 -13.300781 22.632812 -13.300781 22.570312 -13.363281 C 22.511719 -13.421875 22.390625 -13.421875 22.332031 -13.421875 C 22.210938 -13.421875 22.089844 -13.363281 22.03125 -13.300781 C 21.789062 -13.121094 21.546875 -12.878906 21.367188 -12.640625 C 20.222656 -11.496094 16.734375 -8.847656 15.289062 -8.1875 C 15.046875 -8.066406 14.808594 -8.003906 14.566406 -8.003906 C 14.144531 -8.003906 13.84375 -8.367188 13.722656 -9.027344 C 13.664062 -9.269531 13.601562 -9.511719 13.601562 -9.8125 C 13.601562 -10.050781 13.601562 -10.292969 13.601562 -10.59375 C 13.542969 -11.074219 13.542969 -11.554688 13.601562 -12.039062 C 13.601562 -12.519531 13.601562 -13 13.601562 -13.542969 C 13.601562 -13.785156 13.601562 -14.023438 13.664062 -14.324219 C 13.664062 -14.566406 13.601562 -14.808594 13.542969 -15.109375 C 13.421875 -15.890625 13 -16.3125 12.277344 -16.3125 C 11.917969 -16.3125 11.617188 -16.191406 11.375 -16.011719 C 8.246094 -13.84375 4.515625 -6.5625 2.890625 -3.128906 C 2.707031 -2.828125 2.589844 -2.527344 2.46875 -2.226562 C 2.347656 -1.925781 2.105469 -1.625 1.683594 -1.324219 C 1.625 -1.746094 1.566406 -1.867188 1.566406 -2.105469 C 1.566406 -6.320312 3.429688 -16.011719 5.777344 -19.742188 C 8.90625 -24.558594 11.316406 -29.492188 13.664062 -34.730469 C 13.785156 -35.03125 13.902344 -35.332031 14.023438 -35.632812 C 14.144531 -35.933594 14.265625 -36.234375 14.324219 -36.535156 C 14.386719 -36.714844 14.445312 -36.835938 14.445312 -37.015625 C 14.445312 -37.195312 14.445312 -37.316406 14.445312 -37.5 C 14.445312 -37.800781 14.265625 -37.980469 13.84375 -37.980469 C 13.785156 -37.980469 13.722656 -37.980469 13.664062 -37.917969 C 13.363281 -37.738281 13.0625 -37.558594 12.878906 -37.378906 C 8.789062 -32.019531 5.597656 -25.21875 3.492188 -18.898438 C 3.25 -18.238281 3.007812 -17.636719 2.828125 -17.035156 C 2.589844 -16.433594 2.289062 -15.828125 1.867188 -15.289062 C 1.804688 -15.109375 1.683594 -14.988281 1.625 -14.808594 C 1.503906 -14.625 1.503906 -14.386719 1.566406 -14.203125 C 1.746094 -13.785156 1.804688 -13.363281 1.746094 -13 C 1.625 -12.640625 1.503906 -12.277344 1.445312 -11.917969 C 1.324219 -11.136719 1.203125 -10.351562 1.023438 -9.628906 C 0.84375 -8.847656 0.660156 -8.066406 0.542969 -7.28125 C 0.121094 -4.9375 -0.179688 -2.769531 0 -0.421875 C 0 0.121094 0.0585938 0.660156 0.179688 1.144531 C 0.359375 1.683594 0.722656 1.925781 1.144531 1.925781 Z M 8.425781 -26.964844 C 8.726562 -27.265625 8.789062 -27.566406 8.847656 -27.988281 C 8.90625 -27.6875 8.789062 -27.386719 8.488281 -27.023438 L 8.488281 -26.964844 Z M 8.96875 -28.109375 C 9.148438 -28.289062 9.269531 -28.347656 9.328125 -28.410156 Z M 9.511719 -28.710938 L 9.691406 -29.191406 C 9.628906 -29.132812 9.628906 -29.011719 9.628906 -28.953125 C 9.628906 -28.890625 9.570312 -28.769531 9.511719 -28.710938 Z M 9.511719 -28.710938 "/></g></g></g><g fill="#ffffff" fill-opacity="1"><g transform="translate(174.70285, 79.166548)"><g/></g></g><g fill="#ffffff" fill-opacity="1"><g transform="translate(197.575052, 79.166548)"><g><path d="M 1.144531 5.597656 C 1.445312 5.597656 1.746094 5.476562 1.984375 5.238281 C 2.289062 4.996094 2.527344 4.753906 2.707031 4.453125 C 2.890625 4.152344 3.070312 3.792969 3.25 3.492188 C 3.792969 2.589844 4.273438 1.625 4.753906 0.660156 C 5.238281 -0.300781 5.71875 -1.265625 6.199219 -2.226562 C 7.34375 -4.394531 9.691406 -9.027344 11.554688 -12.398438 C 12.699219 -14.386719 13.902344 -16.433594 15.167969 -18.539062 C 17.757812 -22.691406 20.402344 -26.484375 23.050781 -29.253906 C 24.375 -30.636719 25.640625 -31.597656 26.785156 -32.203125 C 27.207031 -32.441406 27.566406 -32.5625 27.867188 -32.5625 C 28.46875 -32.5625 28.832031 -32.082031 29.011719 -31.117188 C 29.191406 -30.335938 29.191406 -29.492188 29.070312 -28.53125 C 28.109375 -21.726562 24.796875 -14.023438 18.839844 -10.171875 C 18.175781 -9.75 17.515625 -9.328125 16.734375 -9.148438 C 15.949219 -9.148438 15.410156 -9.328125 15.410156 -10.230469 C 15.46875 -11.617188 15.890625 -12.820312 17.09375 -13.601562 C 17.335938 -13.785156 17.574219 -13.902344 17.816406 -14.085938 C 18.058594 -14.265625 18.296875 -14.445312 18.539062 -14.625 C 18.839844 -14.867188 18.898438 -15.167969 18.660156 -15.527344 C 18.597656 -15.710938 18.359375 -15.828125 18.058594 -15.828125 L 17.816406 -15.828125 C 17.757812 -15.828125 17.695312 -15.828125 17.636719 -15.769531 C 16.671875 -15.289062 15.769531 -14.808594 15.109375 -13.902344 C 14.023438 -12.640625 13.664062 -11.195312 13.964844 -9.511719 C 14.144531 -8.246094 14.925781 -7.582031 16.3125 -7.582031 C 19.320312 -7.582031 23.414062 -11.675781 25.097656 -14.023438 C 28.167969 -18.296875 29.855469 -22.933594 30.578125 -28.046875 C 30.636719 -28.46875 30.695312 -28.890625 30.695312 -29.3125 C 30.636719 -29.734375 30.636719 -30.15625 30.636719 -30.578125 C 30.695312 -31.238281 30.457031 -31.839844 30.214844 -32.503906 C 29.734375 -33.585938 28.953125 -34.128906 27.929688 -34.128906 C 27.746094 -34.128906 27.445312 -34.066406 27.023438 -34.007812 C 24.558594 -33.34375 21.609375 -30.273438 18.539062 -26.242188 C 17.035156 -24.195312 15.527344 -21.96875 14.023438 -19.5625 C 11.074219 -14.6875 8.367188 -9.871094 6.199219 -5.65625 C 5.117188 -3.550781 4.214844 -1.746094 3.550781 -0.359375 C 3.128906 0.421875 2.769531 1.144531 2.347656 1.867188 C 2.289062 2.046875 2.167969 2.167969 2.046875 2.167969 C 1.984375 2.167969 1.925781 2.167969 1.867188 2.105469 C 1.804688 2.046875 1.746094 1.925781 1.746094 1.625 C 1.746094 1.324219 1.746094 1.144531 1.804688 1.023438 C 2.347656 -4.273438 3.671875 -9.929688 5.355469 -15.46875 C 7.042969 -20.945312 9.089844 -26.363281 11.195312 -31.179688 C 11.4375 -31.71875 11.675781 -32.320312 11.917969 -32.863281 C 12.160156 -33.40625 12.398438 -33.945312 12.578125 -34.488281 C 12.699219 -34.789062 12.761719 -35.089844 12.761719 -35.390625 C 12.761719 -35.8125 12.460938 -35.992188 12.039062 -35.992188 C 11.917969 -35.992188 11.796875 -35.933594 11.738281 -35.871094 C 11.496094 -35.453125 11.253906 -35.089844 11.015625 -34.667969 C 8.546875 -29.132812 5.957031 -22.75 3.972656 -16.25 C 1.984375 -9.75 0.480469 -3.070312 0 3.128906 C 0.0585938 3.308594 0.0585938 3.550781 0.0585938 3.851562 C 0 4.152344 0.0585938 4.394531 0.121094 4.695312 C 0.300781 5.296875 0.660156 5.597656 1.144531 5.597656 Z M 1.144531 5.597656 "/></g></g></g></svg>